<?xml version="1.0" standalone="no"?>
<!DOCTYPE svg PUBLIC "-//W3C//DTD SVG 20010904//EN"
 "http://www.w3.org/TR/2001/REC-SVG-20010904/DTD/svg10.dtd">
<svg version="1.0" xmlns="http://www.w3.org/2000/svg"
 width="600.000000pt" height="600.000000pt" viewBox="0 0 600.000000 600.000000"
 preserveAspectRatio="xMidYMid meet">

<g transform="translate(0.000000,600.000000) scale(0.100000,-0.100000)"
fill="#000000" stroke="none">
<path d="M1060 5350 c-20 -20 -20 -33 -20 -2021 l0 -2001 39 -39 39 -39 1998
2 1999 3 3 2058 2 2057 -2020 0 c-2007 0 -2020 0 -2040 -20z m3978 -2037 l-3
-1978 -1938 -3 c-1325 -1 -1944 1 -1958 8 -19 11 -19 42 -19 1980 l0 1970
1960 0 1960 0 -2 -1977z"/>
<path d="M2018 4639 c-12 -6 -18 -22 -18 -45 0 -43 14 -50 134 -63 100 -12
147 -36 168 -86 10 -24 13 -260 13 -1115 l0 -1085 -24 -42 c-32 -55 -69 -72
-206 -92 l-110 -17 0 -29 c0 -23 6 -31 25 -36 43 -12 1710 -10 1818 2 235 26
318 92 348 276 17 110 21 998 3 1008 -5 4 -20 4 -33 1 -17 -4 -31 -27 -61
-103 -227 -583 -488 -983 -695 -1065 -67 -26 -300 -39 -325 -18 -13 11 -15
161 -15 1159 0 1122 0 1147 20 1178 25 42 69 60 166 67 146 12 144 12 144 55
0 31 -4 40 -22 47 -35 13 -1309 16 -1330 3z m951 -115 c29 -36 29 -99 0 -115
-17 -9 -20 -17 -14 -45 9 -51 -10 -100 -46 -116 -40 -18 -36 -32 7 -23 42 7
54 -3 54 -48 0 -78 -84 -118 -172 -82 -14 5 -18 2 -18 -14 0 -48 -102 -57
-164 -15 -29 20 -40 23 -46 14 -5 -9 -20 -11 -45 -7 l-37 6 5 -32 c10 -59 47
-143 81 -183 62 -72 181 -113 239 -82 35 18 46 40 47 87 0 80 -74 121 -128 71
-25 -24 -28 -43 -8 -59 11 -9 15 -7 19 10 4 13 12 20 24 17 28 -5 27 -35 -1
-54 -24 -15 -28 -15 -51 0 -31 20 -33 63 -5 94 38 41 93 41 143 1 23 -17 27
-28 27 -73 0 -30 -6 -61 -16 -74 -46 -66 -157 -69 -249 -6 -40 27 -56 25 -37
-6 7 -11 12 -48 12 -82 0 -54 -4 -66 -27 -90 -30 -32 -67 -36 -95 -11 -22 19
-24 59 -3 66 18 8 30 -11 26 -40 -3 -30 25 -30 56 -1 30 28 31 102 2 161 -63
128 -95 241 -105 372 -5 71 -3 98 9 128 15 35 15 37 -3 37 -24 0 -40 29 -40
72 1 68 50 114 140 130 95 16 108 -10 48 -98 -39 -58 -35 -66 8 -16 19 23 40
42 45 42 5 0 9 -15 10 -32 1 -18 5 -44 9 -58 7 -22 8 -20 9 14 1 54 37 124 75
147 24 14 50 19 113 19 76 0 83 -2 102 -26z m-224 -945 c35 -17 72 -81 78
-134 8 -71 0 -96 -44 -150 -45 -54 -48 -70 -16 -80 18 -6 12 -9 -28 -15 -28
-4 -64 -14 -81 -23 -70 -36 -139 -142 -168 -259 -18 -69 -39 -245 -32 -257 4
-5 17 1 31 15 28 28 51 30 76 8 16 -15 19 -14 34 16 13 25 22 31 42 28 44 -5
50 -30 21 -85 -25 -47 -45 -113 -34 -113 3 0 15 20 27 45 26 55 90 122 124
131 34 8 75 -19 75 -50 0 -20 8 -26 44 -35 48 -12 86 -49 86 -84 0 -11 -10
-31 -22 -44 -20 -21 -20 -24 -5 -41 22 -24 21 -54 -1 -82 -17 -21 -22 -22 -52
-12 -41 15 -100 16 -100 2 0 -5 17 -10 38 -10 38 0 97 -29 120 -58 17 -22 15
-67 -3 -86 -19 -19 -19 -26 0 -26 18 0 64 -49 65 -67 0 -9 -20 -13 -66 -13
-120 0 -234 81 -234 166 0 29 -3 35 -10 24 -9 -13 -11 -13 -20 0 -5 8 -10 31
-11 50 -1 27 -3 29 -6 10 -13 -82 -32 -53 -48 80 l-13 95 -1 -87 c-1 -50 3
-90 9 -93 6 -4 8 -21 5 -38 -6 -29 -1 -38 46 -84 29 -29 50 -55 47 -58 -14
-14 -161 90 -227 161 -76 82 -95 124 -80 176 5 18 12 100 15 182 12 277 68
420 198 506 71 46 141 112 161 151 38 72 27 159 -26 204 -46 38 -121 36 -172
-6 -40 -33 -47 -61 -22 -96 19 -27 79 -41 100 -23 22 18 18 30 -10 30 -18 0
-25 5 -25 20 0 42 46 34 71 -11 13 -26 -32 -69 -72 -69 -36 0 -99 56 -99 87 1
35 55 98 100 116 19 7 89 -1 115 -14z m106 -405 c83 -52 100 -167 37 -240 -25
-29 -37 -34 -73 -34 -56 0 -106 22 -139 60 -78 94 26 234 117 156 61 -53 7
-140 -58 -93 -10 8 -15 19 -11 25 9 16 43 15 48 0 7 -19 28 1 28 26 0 31 -40
52 -69 37 -50 -27 -57 -107 -12 -152 25 -24 38 -29 79 -29 40 0 54 5 76 26 53
53 26 168 -50 214 -19 12 -34 24 -34 26 0 10 24 2 61 -22z m-326 -904 c44 -38
106 -84 137 -102 32 -18 58 -37 58 -42 0 -14 -42 -46 -61 -46 -41 0 -176 23
-204 34 -33 14 -65 42 -65 57 0 5 9 18 20 29 20 20 20 20 0 52 -23 38 -25 59
-8 76 22 22 42 12 123 -58z"/>
<path d="M2790 4398 c0 -50 58 -79 79 -40 12 23 -3 42 -34 42 -12 0 -26 5 -33
12 -9 9 -12 6 -12 -14z"/>
<path d="M2550 2535 c0 -68 4 -104 10 -100 6 3 10 48 10 100 0 52 -4 97 -10
100 -6 4 -10 -32 -10 -100z"/>
<path d="M2850 2287 c-26 -13 -35 -53 -12 -51 6 1 23 2 37 3 17 1 25 7 25 20
0 30 -22 42 -50 28z"/>
<path d="M2830 2208 c0 -9 7 -19 16 -22 15 -6 15 -4 3 11 -7 10 -15 20 -16 22
-2 2 -3 -3 -3 -11z"/>
</g>
</svg>
